<svg xmlns="http://www.w3.org/2000/svg" width="1920" height="1080"><path d="M728,1306L263,1338L1143,1342Z" fill="#c4643d" stroke="#c4643d" stroke-width="1.51"/><path d="M996,-233L1364,-225L1465,-241Z" fill="#fead92" stroke="#fead92" stroke-width="1.51"/><path d="M166,-257L702,-243L1626,-256Z" fill="#ffcba7" stroke="#ffcba7" stroke-width="1.51"/><path d="M996,-233L1465,-241L1626,-256Z" fill="#fca78c" stroke="#fca78c" stroke-width="1.51"/><path d="M702,-243L996,-233L1626,-256Z" fill="#ffb899" stroke="#ffb899" stroke-width="1.51"/><path d="M166,-257L1626,-256L1881,-266Z" fill="#ffb196" stroke="#ffb196" stroke-width="1.51"/><path d="M1588,1299L1143,1342L1912,1340Z" fill="#af1c11" stroke="#af1c11" stroke-width="1.51"/><path d="M1968,1124L2056,1312L2080,1110Z" fill="#a00001" stroke="#a00001" stroke-width="1.51"/><path d="M1978,115L2040,279L2110,108Z" fill="#cd744a" stroke="#cd744a" stroke-width="1.51"/><path d="M2040,398L2084,572L2110,108Z" fill="#c7653e" stroke="#c7653e" stroke-width="1.51"/><path d="M2040,279L2040,398L2110,108Z" fill="#c96e44" stroke="#c96e44" stroke-width="1.51"/><path d="M1923,684L1883,855L2116,868Z" fill="#c43420" stroke="#c43420" stroke-width="1.51"/><path d="M1933,947L2057,1036L2116,868Z" fill="#b51c10" stroke="#b51c10" stroke-width="1.51"/><path d="M2080,1110L2056,1312L2116,868Z" fill="#a50906" stroke="#a50906" stroke-width="1.51"/><path d="M2057,1036L2080,1110L2116,868Z" fill="#ac150d" stroke="#ac150d" stroke-width="1.51"/><path d="M2064,-191L1969,-90L2129,-60Z" fill="#d08162" stroke="#d08162" stroke-width="1.51"/><path d="M1978,115L2110,108L2129,-60Z" fill="#cc7953" stroke="#cc7953" stroke-width="1.51"/><path d="M1969,-90L1978,115L2129,-60Z" fill="#d17d59" stroke="#d17d59" stroke-width="1.51"/><path d="M1923,684L2116,868L2137,718Z" fill="#bf3924" stroke="#bf3924" stroke-width="1.51"/><path d="M2084,572L1923,684L2137,718Z" fill="#c34528" stroke="#c34528" stroke-width="1.51"/><path d="M2110,108L2084,572L2137,718Z" fill="#c35833" stroke="#c35833" stroke-width="1.51"/><path d="M2129,-60L2110,108L2137,718Z" fill="#c46c44" stroke="#c46c44" stroke-width="1.51"/><path d="M1883,855L1933,947L2116,868Z" fill="#be2716" stroke="#be2716" stroke-width="1.51"/><path d="M1906,591L1923,684L2084,572Z" fill="#cb4b2a" stroke="#cb4b2a" stroke-width="1.51"/><path d="M2040,398L1922,421L2084,572Z" fill="#cc5b34" stroke="#cc5b34" stroke-width="1.51"/><path d="M1922,421L1906,591L2084,572Z" fill="#ce542d" stroke="#ce542d" stroke-width="1.51"/><path d="M1978,115L1962,286L2040,279Z" fill="#d07246" stroke="#d07246" stroke-width="1.51"/><path d="M1968,1124L1912,1340L2056,1312Z" fill="#9b0001" stroke="#9b0001" stroke-width="1.51"/><path d="M2057,1036L1968,1124L2080,1110Z" fill="#a90b06" stroke="#a90b06" stroke-width="1.51"/><path d="M1962,286L2040,398L2040,279Z" fill="#ce6b41" stroke="#ce6b41" stroke-width="1.51"/><path d="M1881,-266L1969,-90L2064,-191Z" fill="#d98668" stroke="#d98668" stroke-width="1.51"/><path d="M1933,947L1968,1124L2057,1036Z" fill="#b2130a" stroke="#b2130a" stroke-width="1.51"/><path d="M1962,286L1922,421L2040,398Z" fill="#d1673d" stroke="#d1673d" stroke-width="1.51"/><path d="M1820,719L1883,855L1923,684Z" fill="#cf3d25" stroke="#cf3d25" stroke-width="1.51"/><path d="M1800,1265L1912,1340L1968,1124Z" fill="#a50001" stroke="#a50001" stroke-width="1.51"/><path d="M1805,1164L1800,1265L1968,1124Z" fill="#af0000" stroke="#af0000" stroke-width="1.51"/><path d="M1933,947L1785,1004L1968,1124Z" fill="#bb150a" stroke="#bb150a" stroke-width="1.51"/><path d="M1785,1004L1805,1164L1968,1124Z" fill="#b90c05" stroke="#b90c05" stroke-width="1.51"/><path d="M1881,-266L1761,-202L1969,-90Z" fill="#e3896a" stroke="#e3896a" stroke-width="1.51"/><path d="M1761,-202L1782,-49L1969,-90Z" fill="#e48865" stroke="#e48865" stroke-width="1.51"/><path d="M1782,-49L1731,122L1978,115Z" fill="#e28055" stroke="#e28055" stroke-width="1.51"/><path d="M1731,122L1779,201L1978,115Z" fill="#e07c4e" stroke="#e07c4e" stroke-width="1.51"/><path d="M1779,201L1962,286L1978,115Z" fill="#d97649" stroke="#d97649" stroke-width="1.51"/><path d="M1969,-90L1782,-49L1978,115Z" fill="#dc815a" stroke="#dc815a" stroke-width="1.51"/><path d="M1803,439L1906,591L1922,421Z" fill="#d85c32" stroke="#d85c32" stroke-width="1.51"/><path d="M1803,439L1922,421L1962,286Z" fill="#d8683c" stroke="#d8683c" stroke-width="1.51"/><path d="M1800,1265L1588,1299L1912,1340Z" fill="#a60a05" stroke="#a60a05" stroke-width="1.51"/><path d="M1779,201L1803,439L1962,286Z" fill="#dd7143" stroke="#dd7143" stroke-width="1.51"/><path d="M996,-233L1163,-207L1364,-225Z" fill="#ffb395" stroke="#ffb395" stroke-width="1.51"/><path d="M1820,719L1805,808L1883,855Z" fill="#d03921" stroke="#d03921" stroke-width="1.51"/><path d="M1803,439L1762,537L1906,591Z" fill="#db5930" stroke="#db5930" stroke-width="1.51"/><path d="M1883,855L1785,1004L1933,947Z" fill="#c52111" stroke="#c52111" stroke-width="1.51"/><path d="M1906,591L1820,719L1923,684Z" fill="#d24728" stroke="#d24728" stroke-width="1.51"/><path d="M1626,-256L1761,-202L1881,-266Z" fill="#eb9073" stroke="#eb9073" stroke-width="1.51"/><path d="M1762,537L1820,719L1906,591Z" fill="#d84f2c" stroke="#d84f2c" stroke-width="1.51"/><path d="M1779,201L1682,246L1803,439Z" fill="#e37649" stroke="#e37649" stroke-width="1.51"/><path d="M1805,808L1785,1004L1883,855Z" fill="#cb2b19" stroke="#cb2b19" stroke-width="1.51"/><path d="M1683,-9L1731,122L1782,-49Z" fill="#e8875e" stroke="#e8875e" stroke-width="1.51"/><path d="M1682,246L1610,405L1803,439Z" fill="#e57346" stroke="#e57346" stroke-width="1.51"/><path d="M1649,886L1785,1004L1805,808Z" fill="#cf2e1c" stroke="#cf2e1c" stroke-width="1.51"/><path d="M1785,1004L1687,1138L1805,1164Z" fill="#be1509" stroke="#be1509" stroke-width="1.51"/><path d="M1663,640L1805,808L1820,719Z" fill="#d9462b" stroke="#d9462b" stroke-width="1.51"/><path d="M1762,537L1663,640L1820,719Z" fill="#dc512e" stroke="#dc512e" stroke-width="1.51"/><path d="M879,1298L728,1306L1143,1342Z" fill="#c4542f" stroke="#c4542f" stroke-width="1.51"/><path d="M1663,640L1649,886L1805,808Z" fill="#d8422a" stroke="#d8422a" stroke-width="1.51"/><path d="M1687,1138L1800,1265L1805,1164Z" fill="#b40b05" stroke="#b40b05" stroke-width="1.51"/><path d="M1761,-202L1683,-9L1782,-49Z" fill="#e98c67" stroke="#e98c67" stroke-width="1.51"/><path d="M1610,405L1762,537L1803,439Z" fill="#e2653b" stroke="#e2653b" stroke-width="1.51"/><path d="M1687,1138L1588,1299L1800,1265Z" fill="#b31209" stroke="#b31209" stroke-width="1.51"/><path d="M1361,1250L1143,1342L1588,1299Z" fill="#bb311e" stroke="#bb311e" stroke-width="1.51"/><path d="M1597,940L1687,1138L1785,1004Z" fill="#c82213" stroke="#c82213" stroke-width="1.51"/><path d="M1649,886L1597,940L1785,1004Z" fill="#d02b1a" stroke="#d02b1a" stroke-width="1.51"/><path d="M1626,-256L1683,-9L1761,-202Z" fill="#ed9070" stroke="#ed9070" stroke-width="1.51"/><path d="M1731,122L1682,246L1779,201Z" fill="#e57d50" stroke="#e57d50" stroke-width="1.51"/><path d="M1578,502L1663,640L1762,537Z" fill="#e45c35" stroke="#e45c35" stroke-width="1.51"/><path d="M1610,405L1578,502L1762,537Z" fill="#e6663d" stroke="#e6663d" stroke-width="1.51"/><path d="M1528,827L1649,886L1663,640Z" fill="#de452d" stroke="#de452d" stroke-width="1.51"/><path d="M1626,-256L1498,-114L1683,-9Z" fill="#f29372" stroke="#f29372" stroke-width="1.51"/><path d="M1597,940L1538,1018L1687,1138Z" fill="#cd2717" stroke="#cd2717" stroke-width="1.51"/><path d="M1683,-9L1609,58L1731,122Z" fill="#eb885d" stroke="#eb885d" stroke-width="1.51"/><path d="M1609,58L1682,246L1731,122Z" fill="#e98356" stroke="#e98356" stroke-width="1.51"/><path d="M1507,250L1610,405L1682,246Z" fill="#ec7d50" stroke="#ec7d50" stroke-width="1.51"/><path d="M1609,58L1507,250L1682,246Z" fill="#ed8457" stroke="#ed8457" stroke-width="1.51"/><path d="M1498,-114L1609,58L1683,-9Z" fill="#f18f68" stroke="#f18f68" stroke-width="1.51"/><path d="M1538,1018L1477,1114L1687,1138Z" fill="#ca2415" stroke="#ca2415" stroke-width="1.51"/><path d="M1482,1245L1588,1299L1687,1138Z" fill="#ba1a0f" stroke="#ba1a0f" stroke-width="1.51"/><path d="M1477,1114L1482,1245L1687,1138Z" fill="#c41f11" stroke="#c41f11" stroke-width="1.51"/><path d="M1462,643L1528,827L1663,640Z" fill="#e55335" stroke="#e55335" stroke-width="1.51"/><path d="M1482,1245L1361,1250L1588,1299Z" fill="#bb2616" stroke="#bb2616" stroke-width="1.51"/><path d="M1578,502L1462,643L1663,640Z" fill="#e85d39" stroke="#e85d39" stroke-width="1.51"/><path d="M1491,523L1462,643L1578,502Z" fill="#ec653e" stroke="#ec653e" stroke-width="1.51"/><path d="M1528,827L1597,940L1649,886Z" fill="#d93925" stroke="#d93925" stroke-width="1.51"/><path d="M1440,70L1507,250L1609,58Z" fill="#f18d5f" stroke="#f18d5f" stroke-width="1.51"/><path d="M1498,-114L1440,70L1609,58Z" fill="#f4936b" stroke="#f4936b" stroke-width="1.51"/><path d="M1507,250L1469,386L1610,405Z" fill="#ef7d51" stroke="#ef7d51" stroke-width="1.51"/><path d="M1465,-241L1498,-114L1626,-256Z" fill="#f79a7c" stroke="#f79a7c" stroke-width="1.51"/><path d="M1469,386L1578,502L1610,405Z" fill="#ed7247" stroke="#ed7247" stroke-width="1.51"/><path d="M1469,386L1491,523L1578,502Z" fill="#ed6f46" stroke="#ed6f46" stroke-width="1.51"/><path d="M1528,827L1538,1018L1597,940Z" fill="#d93422" stroke="#d93422" stroke-width="1.51"/><path d="M1350,-55L1440,70L1498,-114Z" fill="#f79b75" stroke="#f79b75" stroke-width="1.51"/><path d="M1440,70L1380,226L1507,250Z" fill="#f38e61" stroke="#f38e61" stroke-width="1.51"/><path d="M1462,643L1359,835L1528,827Z" fill="#e75339" stroke="#e75339" stroke-width="1.51"/><path d="M1329,1018L1477,1114L1538,1018Z" fill="#d33420" stroke="#d33420" stroke-width="1.51"/><path d="M1528,827L1359,835L1538,1018Z" fill="#de412b" stroke="#de412b" stroke-width="1.51"/><path d="M1359,835L1329,1018L1538,1018Z" fill="#dd3f29" stroke="#dd3f29" stroke-width="1.51"/><path d="M1380,226L1362,385L1469,386Z" fill="#f3885b" stroke="#f3885b" stroke-width="1.51"/><path d="M1477,1114L1361,1250L1482,1245Z" fill="#c42b19" stroke="#c42b19" stroke-width="1.51"/><path d="M1360,585L1462,643L1491,523Z" fill="#ed6842" stroke="#ed6842" stroke-width="1.51"/><path d="M1469,386L1362,385L1491,523Z" fill="#f1794e" stroke="#f1794e" stroke-width="1.51"/><path d="M1465,-241L1364,-225L1498,-114Z" fill="#f9a082" stroke="#f9a082" stroke-width="1.51"/><path d="M1380,226L1469,386L1507,250Z" fill="#f2875a" stroke="#f2875a" stroke-width="1.51"/><path d="M1309,643L1359,835L1462,643Z" fill="#ec6041" stroke="#ec6041" stroke-width="1.51"/><path d="M1364,-225L1350,-55L1498,-114Z" fill="#f9a17f" stroke="#f9a17f" stroke-width="1.51"/><path d="M1362,385L1360,585L1491,523Z" fill="#f1744a" stroke="#f1744a" stroke-width="1.51"/><path d="M1288,1185L1361,1250L1477,1114Z" fill="#ca331d" stroke="#ca331d" stroke-width="1.51"/><path d="M1329,1018L1288,1185L1477,1114Z" fill="#d23822" stroke="#d23822" stroke-width="1.51"/><path d="M571,1290L263,1338L728,1306Z" fill="#c86f46" stroke="#c86f46" stroke-width="1.51"/><path d="M1350,-55L1329,45L1440,70Z" fill="#f79c74" stroke="#f79c74" stroke-width="1.51"/><path d="M1329,45L1380,226L1440,70Z" fill="#f5966a" stroke="#f5966a" stroke-width="1.51"/><path d="M1360,585L1309,643L1462,643Z" fill="#ef6845" stroke="#ef6845" stroke-width="1.51"/><path d="M166,-257L601,-222L702,-243Z" fill="#ffdebb" stroke="#ffdebb" stroke-width="1.51"/><path d="M1238,1101L1288,1185L1329,1018Z" fill="#d54028" stroke="#d54028" stroke-width="1.51"/><path d="M1219,796L1329,1018L1359,835Z" fill="#e65137" stroke="#e65137" stroke-width="1.51"/><path d="M1309,643L1219,796L1359,835Z" fill="#ed6144" stroke="#ed6144" stroke-width="1.51"/><path d="M1198,494L1360,585L1362,385Z" fill="#f57d53" stroke="#f57d53" stroke-width="1.51"/><path d="M1163,-207L1350,-55L1364,-225Z" fill="#fda98b" stroke="#fda98b" stroke-width="1.51"/><path d="M1329,45L1229,205L1380,226Z" fill="#f7996c" stroke="#f7996c" stroke-width="1.51"/><path d="M1239,339L1362,385L1380,226Z" fill="#f68e61" stroke="#f68e61" stroke-width="1.51"/><path d="M1229,205L1239,339L1380,226Z" fill="#f79568" stroke="#f79568" stroke-width="1.51"/><path d="M1219,796L1189,1032L1329,1018Z" fill="#e44e34" stroke="#e44e34" stroke-width="1.51"/><path d="M1163,-207L1135,-59L1350,-55Z" fill="#fdac89" stroke="#fdac89" stroke-width="1.51"/><path d="M1198,494L1309,643L1360,585Z" fill="#f4744d" stroke="#f4744d" stroke-width="1.51"/><path d="M1288,1185L1143,1342L1361,1250Z" fill="#c43b24" stroke="#c43b24" stroke-width="1.51"/><path d="M1239,339L1198,494L1362,385Z" fill="#f7895d" stroke="#f7895d" stroke-width="1.51"/><path d="M1135,-59L1145,37L1329,45Z" fill="#fca87f" stroke="#fca87f" stroke-width="1.51"/><path d="M1135,-59L1329,45L1350,-55Z" fill="#fba580" stroke="#fba580" stroke-width="1.51"/><path d="M1189,1032L1238,1101L1329,1018Z" fill="#db462d" stroke="#db462d" stroke-width="1.51"/><path d="M1145,37L1229,205L1329,45Z" fill="#faa275" stroke="#faa275" stroke-width="1.51"/><path d="M1141,738L1219,796L1309,643Z" fill="#f06a4a" stroke="#f06a4a" stroke-width="1.51"/><path d="M1198,494L1141,738L1309,643Z" fill="#f4744e" stroke="#f4744e" stroke-width="1.51"/><path d="M1068,555L1141,738L1198,494Z" fill="#f77d51" stroke="#f77d51" stroke-width="1.51"/><path d="M1074,984L1189,1032L1219,796Z" fill="#e65638" stroke="#e65638" stroke-width="1.51"/><path d="M1238,1101L1084,1277L1288,1185Z" fill="#cf4226" stroke="#cf4226" stroke-width="1.51"/><path d="M1084,1277L1143,1342L1288,1185Z" fill="#c54227" stroke="#c54227" stroke-width="1.51"/><path d="M1145,37L1075,234L1229,205Z" fill="#fba373" stroke="#fba373" stroke-width="1.51"/><path d="M1189,1032L1033,1134L1238,1101Z" fill="#da4c2d" stroke="#da4c2d" stroke-width="1.51"/><path d="M1033,1134L1084,1277L1238,1101Z" fill="#d34929" stroke="#d34929" stroke-width="1.51"/><path d="M1074,360L1198,494L1239,339Z" fill="#f99061" stroke="#f99061" stroke-width="1.51"/><path d="M1229,205L1075,234L1239,339Z" fill="#fa9b6c" stroke="#fa9b6c" stroke-width="1.51"/><path d="M1075,234L1074,360L1239,339Z" fill="#fa9b6a" stroke="#fa9b6a" stroke-width="1.51"/><path d="M1141,738L991,816L1219,796Z" fill="#f06b48" stroke="#f06b48" stroke-width="1.51"/><path d="M991,816L1074,984L1219,796Z" fill="#ec6440" stroke="#ec6440" stroke-width="1.51"/><path d="M1044,62L1075,234L1145,37Z" fill="#fdaa79" stroke="#fdaa79" stroke-width="1.51"/><path d="M1068,555L1005,655L1141,738Z" fill="#f67c51" stroke="#f67c51" stroke-width="1.51"/><path d="M1072,-74L1135,-59L1163,-207Z" fill="#ffb28d" stroke="#ffb28d" stroke-width="1.51"/><path d="M1074,984L1033,1134L1189,1032Z" fill="#df5331" stroke="#df5331" stroke-width="1.51"/><path d="M1074,360L1068,555L1198,494Z" fill="#fa8b5b" stroke="#fa8b5b" stroke-width="1.51"/><path d="M996,-233L1072,-74L1163,-207Z" fill="#ffb793" stroke="#ffb793" stroke-width="1.51"/><path d="M1084,1277L879,1298L1143,1342Z" fill="#c34b2a" stroke="#c34b2a" stroke-width="1.51"/><path d="M1135,-59L1072,-74L1145,37Z" fill="#feaf86" stroke="#feaf86" stroke-width="1.51"/><path d="M1072,-74L1044,62L1145,37Z" fill="#feb083" stroke="#feb083" stroke-width="1.51"/><path d="M1005,655L991,816L1141,738Z" fill="#f4754e" stroke="#f4754e" stroke-width="1.51"/><path d="M996,-233L885,-166L1072,-74Z" fill="#ffbc96" stroke="#ffbc96" stroke-width="1.51"/><path d="M867,439L1068,555L1074,360Z" fill="#fc9461" stroke="#fc9461" stroke-width="1.51"/><path d="M876,979L1033,1134L1074,984Z" fill="#e35b35" stroke="#e35b35" stroke-width="1.51"/><path d="M991,816L876,979L1074,984Z" fill="#eb643d" stroke="#eb643d" stroke-width="1.51"/><path d="M1044,62L874,91L1075,234Z" fill="#feaf7a" stroke="#feaf7a" stroke-width="1.51"/><path d="M874,91L869,232L1075,234Z" fill="#feaf79" stroke="#feaf79" stroke-width="1.51"/><path d="M869,232L1074,360L1075,234Z" fill="#fda570" stroke="#fda570" stroke-width="1.51"/><path d="M1033,1134L879,1298L1084,1277Z" fill="#cd502c" stroke="#cd502c" stroke-width="1.51"/><path d="M845,-75L1044,62L1072,-74Z" fill="#ffb78a" stroke="#ffb78a" stroke-width="1.51"/><path d="M869,232L867,439L1074,360Z" fill="#fda56f" stroke="#fda56f" stroke-width="1.51"/><path d="M867,439L839,497L1068,555Z" fill="#fd9560" stroke="#fd9560" stroke-width="1.51"/><path d="M885,-166L845,-75L1072,-74Z" fill="#ffbe94" stroke="#ffbe94" stroke-width="1.51"/><path d="M910,651L1005,655L1068,555Z" fill="#f98454" stroke="#f98454" stroke-width="1.51"/><path d="M839,497L910,651L1068,555Z" fill="#fb8c59" stroke="#fb8c59" stroke-width="1.51"/><path d="M910,651L877,784L991,816Z" fill="#f67c52" stroke="#f67c52" stroke-width="1.51"/><path d="M910,651L991,816L1005,655Z" fill="#f77d51" stroke="#f77d51" stroke-width="1.51"/><path d="M859,1115L879,1298L1033,1134Z" fill="#d6582f" stroke="#d6582f" stroke-width="1.51"/><path d="M876,979L859,1115L1033,1134Z" fill="#e05e35" stroke="#e05e35" stroke-width="1.51"/><path d="M845,-75L874,91L1044,62Z" fill="#ffb988" stroke="#ffb988" stroke-width="1.51"/><path d="M702,-243L885,-166L996,-233Z" fill="#ffc8a2" stroke="#ffc8a2" stroke-width="1.51"/><path d="M877,784L876,979L991,816Z" fill="#f07147" stroke="#f07147" stroke-width="1.51"/><path d="M166,-257L312,-199L601,-222Z" fill="#ffe3c0" stroke="#ffe3c0" stroke-width="1.51"/><path d="M699,595L786,706L839,497Z" fill="#fb9663" stroke="#fb9663" stroke-width="1.51"/><path d="M768,376L867,439L869,232Z" fill="#fdad76" stroke="#fdad76" stroke-width="1.51"/><path d="M766,814L876,979L877,784Z" fill="#f1774d" stroke="#f1774d" stroke-width="1.51"/><path d="M859,1115L765,1168L879,1298Z" fill="#d65f35" stroke="#d65f35" stroke-width="1.51"/><path d="M786,706L877,784L910,651Z" fill="#f78559" stroke="#f78559" stroke-width="1.51"/><path d="M839,497L786,706L910,651Z" fill="#fa8f5d" stroke="#fa8f5d" stroke-width="1.51"/><path d="M845,-75L690,-5L874,91Z" fill="#ffc393" stroke="#ffc393" stroke-width="1.51"/><path d="M701,187L869,232L874,91Z" fill="#feba83" stroke="#feba83" stroke-width="1.51"/><path d="M694,131L701,187L874,91Z" fill="#fec089" stroke="#fec089" stroke-width="1.51"/><path d="M679,1019L859,1115L876,979Z" fill="#e56b40" stroke="#e56b40" stroke-width="1.51"/><path d="M765,1168L728,1306L879,1298Z" fill="#cd6038" stroke="#cd6038" stroke-width="1.51"/><path d="M702,-243L845,-75L885,-166Z" fill="#ffc9a1" stroke="#ffc9a1" stroke-width="1.51"/><path d="M453,1279L263,1338L571,1290Z" fill="#ca7249" stroke="#ca7249" stroke-width="1.51"/><path d="M766,814L679,1019L876,979Z" fill="#ed754a" stroke="#ed754a" stroke-width="1.51"/><path d="M786,706L766,814L877,784Z" fill="#f68359" stroke="#f68359" stroke-width="1.51"/><path d="M690,-5L694,131L874,91Z" fill="#fec390" stroke="#fec390" stroke-width="1.51"/><path d="M701,187L768,376L869,232Z" fill="#fdb680" stroke="#fdb680" stroke-width="1.51"/><path d="M679,1019L765,1168L859,1115Z" fill="#e06a3e" stroke="#e06a3e" stroke-width="1.51"/><path d="M768,376L839,497L867,439Z" fill="#fda36d" stroke="#fda36d" stroke-width="1.51"/><path d="M702,-243L690,-5L845,-75Z" fill="#ffcca2" stroke="#ffcca2" stroke-width="1.51"/><path d="M768,376L637,443L839,497Z" fill="#fda972" stroke="#fda972" stroke-width="1.51"/><path d="M637,443L699,595L839,497Z" fill="#fda36d" stroke="#fda36d" stroke-width="1.51"/><path d="M601,-222L690,-5L702,-243Z" fill="#ffd4ac" stroke="#ffd4ac" stroke-width="1.51"/><path d="M638,822L679,1019L766,814Z" fill="#f18154" stroke="#f18154" stroke-width="1.51"/><path d="M701,187L571,241L768,376Z" fill="#fdbe86" stroke="#fdbe86" stroke-width="1.51"/><path d="M699,595L576,641L786,706Z" fill="#fa9968" stroke="#fa9968" stroke-width="1.51"/><path d="M576,641L638,822L786,706Z" fill="#f99366" stroke="#f99366" stroke-width="1.51"/><path d="M638,822L766,814L786,706Z" fill="#f5895d" stroke="#f5895d" stroke-width="1.51"/><path d="M601,-222L580,-32L690,-5Z" fill="#ffd3a8" stroke="#ffd3a8" stroke-width="1.51"/><path d="M679,1019L582,1100L765,1168Z" fill="#e17245" stroke="#e17245" stroke-width="1.51"/><path d="M571,1290L728,1306L765,1168Z" fill="#ce693f" stroke="#ce693f" stroke-width="1.51"/><path d="M582,1100L571,1290L765,1168Z" fill="#d96f42" stroke="#d96f42" stroke-width="1.51"/><path d="M571,241L637,443L768,376Z" fill="#fdb982" stroke="#fdb982" stroke-width="1.51"/><path d="M312,-199L446,-172L601,-222Z" fill="#ffdeb9" stroke="#ffdeb9" stroke-width="1.51"/><path d="M638,822L579,985L679,1019Z" fill="#ee7e52" stroke="#ee7e52" stroke-width="1.51"/><path d="M-212,-237L38,-229L166,-257Z" fill="#ffefd9" stroke="#ffefd9" stroke-width="1.51"/><path d="M690,-5L562,61L694,131Z" fill="#fecb98" stroke="#fecb98" stroke-width="1.51"/><path d="M637,443L531,486L699,595Z" fill="#fea973" stroke="#fea973" stroke-width="1.51"/><path d="M531,486L576,641L699,595Z" fill="#fda46f" stroke="#fda46f" stroke-width="1.51"/><path d="M694,131L571,241L701,187Z" fill="#fdc48d" stroke="#fdc48d" stroke-width="1.51"/><path d="M580,-32L562,61L690,-5Z" fill="#fecf9f" stroke="#fecf9f" stroke-width="1.51"/><path d="M562,61L571,241L694,131Z" fill="#fdc992" stroke="#fdc992" stroke-width="1.51"/><path d="M571,241L482,385L637,443Z" fill="#fdbd85" stroke="#fdbd85" stroke-width="1.51"/><path d="M576,641L487,723L638,822Z" fill="#f9986a" stroke="#f9986a" stroke-width="1.51"/><path d="M579,985L582,1100L679,1019Z" fill="#e7794c" stroke="#e7794c" stroke-width="1.51"/><path d="M562,61L487,136L571,241Z" fill="#fdcc95" stroke="#fdcc95" stroke-width="1.51"/><path d="M481,1187L571,1290L582,1100Z" fill="#d87346" stroke="#d87346" stroke-width="1.51"/><path d="M446,-172L580,-32L601,-222Z" fill="#ffd9b0" stroke="#ffd9b0" stroke-width="1.51"/><path d="M482,385L531,486L637,443Z" fill="#fdb47d" stroke="#fdb47d" stroke-width="1.51"/><path d="M487,723L455,855L638,822Z" fill="#f69265" stroke="#f69265" stroke-width="1.51"/><path d="M469,935L579,985L638,822Z" fill="#f08558" stroke="#f08558" stroke-width="1.51"/><path d="M455,855L469,935L638,822Z" fill="#f38b5e" stroke="#f38b5e" stroke-width="1.51"/><path d="M481,1187L453,1279L571,1290Z" fill="#d07247" stroke="#d07247" stroke-width="1.51"/><path d="M418,276L482,385L571,241Z" fill="#fdc48d" stroke="#fdc48d" stroke-width="1.51"/><path d="M531,486L446,493L576,641Z" fill="#feaa74" stroke="#feaa74" stroke-width="1.51"/><path d="M412,-44L562,61L580,-32Z" fill="#fed4a4" stroke="#fed4a4" stroke-width="1.51"/><path d="M446,-172L412,-44L580,-32Z" fill="#fed9ae" stroke="#fed9ae" stroke-width="1.51"/><path d="M579,985L469,935L582,1100Z" fill="#ea7e51" stroke="#ea7e51" stroke-width="1.51"/><path d="M469,935L481,1187L582,1100Z" fill="#e57b4d" stroke="#e57b4d" stroke-width="1.51"/><path d="M446,493L487,723L576,641Z" fill="#fca471" stroke="#fca471" stroke-width="1.51"/><path d="M487,136L418,276L571,241Z" fill="#fdc993" stroke="#fdc993" stroke-width="1.51"/><path d="M412,-44L487,136L562,61Z" fill="#fed2a0" stroke="#fed2a0" stroke-width="1.51"/><path d="M287,1030L335,1169L469,935Z" fill="#e88456" stroke="#e88456" stroke-width="1.51"/><path d="M469,935L335,1169L481,1187Z" fill="#e37d4f" stroke="#e37d4f" stroke-width="1.51"/><path d="M446,493L313,719L487,723Z" fill="#fca574" stroke="#fca574" stroke-width="1.51"/><path d="M482,385L446,493L531,486Z" fill="#feb57f" stroke="#feb57f" stroke-width="1.51"/><path d="M313,719L294,785L455,855Z" fill="#f89b6e" stroke="#f89b6e" stroke-width="1.51"/><path d="M283,65L418,276L487,136Z" fill="#fdd19a" stroke="#fdd19a" stroke-width="1.51"/><path d="M412,-44L283,65L487,136Z" fill="#fed6a4" stroke="#fed6a4" stroke-width="1.51"/><path d="M313,719L455,855L487,723Z" fill="#f89a6d" stroke="#f89a6d" stroke-width="1.51"/><path d="M256,485L313,719L446,493Z" fill="#feaf7b" stroke="#feaf7b" stroke-width="1.51"/><path d="M335,1169L453,1279L481,1187Z" fill="#d6774a" stroke="#d6774a" stroke-width="1.51"/><path d="M251,410L446,493L482,385Z" fill="#febc85" stroke="#febc85" stroke-width="1.51"/><path d="M418,276L251,410L482,385Z" fill="#fdc48d" stroke="#fdc48d" stroke-width="1.51"/><path d="M294,281L251,410L418,276Z" fill="#fdca94" stroke="#fdca94" stroke-width="1.51"/><path d="M283,65L294,281L418,276Z" fill="#fdd09b" stroke="#fdd09b" stroke-width="1.51"/><path d="M455,855L287,1030L469,935Z" fill="#f0895c" stroke="#f0895c" stroke-width="1.51"/><path d="M312,-199L412,-44L446,-172Z" fill="#ffdfb6" stroke="#ffdfb6" stroke-width="1.51"/><path d="M251,410L256,485L446,493Z" fill="#febb86" stroke="#febb86" stroke-width="1.51"/><path d="M294,785L287,1030L455,855Z" fill="#f39063" stroke="#f39063" stroke-width="1.51"/><path d="M335,1169L263,1338L453,1279Z" fill="#d1784d" stroke="#d1784d" stroke-width="1.51"/><path d="M22,1245L-193,1276L263,1338Z" fill="#d08061" stroke="#d08061" stroke-width="1.51"/><path d="M312,-199L252,-10L412,-44Z" fill="#fedfb6" stroke="#fedfb6" stroke-width="1.51"/><path d="M252,-10L283,65L412,-44Z" fill="#fedbad" stroke="#fedbad" stroke-width="1.51"/><path d="M190,800L128,965L287,1030Z" fill="#f39169" stroke="#f39169" stroke-width="1.51"/><path d="M190,800L287,1030L294,785Z" fill="#f5956b" stroke="#f5956b" stroke-width="1.51"/><path d="M283,65L163,207L294,281Z" fill="#fed4a2" stroke="#fed4a2" stroke-width="1.51"/><path d="M174,-89L252,-10L312,-199Z" fill="#fee2bd" stroke="#fee2bd" stroke-width="1.51"/><path d="M256,485L144,516L313,719Z" fill="#ffb282" stroke="#ffb282" stroke-width="1.51"/><path d="M144,516L122,740L313,719Z" fill="#fdac81" stroke="#fdac81" stroke-width="1.51"/><path d="M187,1268L263,1338L335,1169Z" fill="#d27b53" stroke="#d27b53" stroke-width="1.51"/><path d="M287,1030L137,1100L335,1169Z" fill="#e58358" stroke="#e58358" stroke-width="1.51"/><path d="M137,1100L187,1268L335,1169Z" fill="#de8056" stroke="#de8056" stroke-width="1.51"/><path d="M166,-257L174,-89L312,-199Z" fill="#ffe6c6" stroke="#ffe6c6" stroke-width="1.51"/><path d="M190,800L294,785L313,719Z" fill="#fa9f76" stroke="#fa9f76" stroke-width="1.51"/><path d="M122,740L190,800L313,719Z" fill="#fba37b" stroke="#fba37b" stroke-width="1.51"/><path d="M187,1268L22,1245L263,1338Z" fill="#cf7d59" stroke="#cf7d59" stroke-width="1.51"/><path d="M125,80L163,207L283,65Z" fill="#fedaab" stroke="#fedaab" stroke-width="1.51"/><path d="M163,207L251,410L294,281Z" fill="#fecd9b" stroke="#fecd9b" stroke-width="1.51"/><path d="M128,965L137,1100L287,1030Z" fill="#eb8a62" stroke="#eb8a62" stroke-width="1.51"/><path d="M252,-10L125,80L283,65Z" fill="#fedcb0" stroke="#fedcb0" stroke-width="1.51"/><path d="M163,207L121,445L251,410Z" fill="#fecc9b" stroke="#fecc9b" stroke-width="1.51"/><path d="M251,410L121,445L256,485Z" fill="#ffc08f" stroke="#ffc08f" stroke-width="1.51"/><path d="M121,445L144,516L256,485Z" fill="#ffbd8e" stroke="#ffbd8e" stroke-width="1.51"/><path d="M174,-89L125,80L252,-10Z" fill="#fee0b8" stroke="#fee0b8" stroke-width="1.51"/><path d="M28,716L122,740L144,516Z" fill="#feaf88" stroke="#feaf88" stroke-width="1.51"/><path d="M-21,553L28,716L144,516Z" fill="#ffb68d" stroke="#ffb68d" stroke-width="1.51"/><path d="M35,430L121,445L163,207Z" fill="#ffcd9f" stroke="#ffcd9f" stroke-width="1.51"/><path d="M-47,222L35,430L163,207Z" fill="#ffd4a9" stroke="#ffd4a9" stroke-width="1.51"/><path d="M-37,-59L125,80L174,-89Z" fill="#fee4c0" stroke="#fee4c0" stroke-width="1.51"/><path d="M166,-257L38,-229L174,-89Z" fill="#ffeacd" stroke="#ffeacd" stroke-width="1.51"/><path d="M137,1100L22,1245L187,1268Z" fill="#db825d" stroke="#db825d" stroke-width="1.51"/><path d="M-11,804L128,965L190,800Z" fill="#f79c77" stroke="#f79c77" stroke-width="1.51"/><path d="M122,740L-11,804L190,800Z" fill="#faa47f" stroke="#faa47f" stroke-width="1.51"/><path d="M125,80L-2,140L163,207Z" fill="#fedcaf" stroke="#fedcaf" stroke-width="1.51"/><path d="M38,-229L-37,-59L174,-89Z" fill="#fee9cc" stroke="#fee9cc" stroke-width="1.51"/><path d="M-2,140L-47,222L163,207Z" fill="#fedab0" stroke="#fedab0" stroke-width="1.51"/><path d="M-56,1157L22,1245L137,1100Z" fill="#e28662" stroke="#e28662" stroke-width="1.51"/><path d="M128,965L-39,1001L137,1100Z" fill="#ee8e6a" stroke="#ee8e6a" stroke-width="1.51"/><path d="M121,445L35,430L144,516Z" fill="#ffc295" stroke="#ffc295" stroke-width="1.51"/><path d="M35,430L-21,553L144,516Z" fill="#ffbf94" stroke="#ffbf94" stroke-width="1.51"/><path d="M-11,804L-39,1001L128,965Z" fill="#f59875" stroke="#f59875" stroke-width="1.51"/><path d="M-39,1001L-56,1157L137,1100Z" fill="#e98c69" stroke="#e98c69" stroke-width="1.51"/><path d="M28,716L-11,804L122,740Z" fill="#fca886" stroke="#fca886" stroke-width="1.51"/><path d="M-37,-59L-2,140L125,80Z" fill="#fee2bc" stroke="#fee2bc" stroke-width="1.51"/><path d="M-156,879L-39,1001L-11,804Z" fill="#f89c7d" stroke="#f89c7d" stroke-width="1.51"/><path d="M-37,-59L-114,136L-2,140Z" fill="#ffe3bf" stroke="#ffe3bf" stroke-width="1.51"/><path d="M-21,553L-153,709L28,716Z" fill="#ffb390" stroke="#ffb390" stroke-width="1.51"/><path d="M-47,222L-163,294L35,430Z" fill="#ffd5ae" stroke="#ffd5ae" stroke-width="1.51"/><path d="M-163,294L-202,392L35,430Z" fill="#ffd1ab" stroke="#ffd1ab" stroke-width="1.51"/><path d="M-212,-237L-37,-59L38,-229Z" fill="#ffefd8" stroke="#ffefd8" stroke-width="1.51"/><path d="M-188,516L-21,553L35,430Z" fill="#ffc29a" stroke="#ffc29a" stroke-width="1.51"/><path d="M-202,392L-188,516L35,430Z" fill="#ffcaa4" stroke="#ffcaa4" stroke-width="1.51"/><path d="M-153,709L-11,804L28,716Z" fill="#feab8c" stroke="#feab8c" stroke-width="1.51"/><path d="M-56,1157L-193,1276L22,1245Z" fill="#db8668" stroke="#db8668" stroke-width="1.51"/><path d="M-143,1102L-56,1157L-39,1001Z" fill="#ea8e6e" stroke="#ea8e6e" stroke-width="1.51"/><path d="M-140,1029L-143,1102L-39,1001Z" fill="#ee9173" stroke="#ee9173" stroke-width="1.51"/><path d="M-201,-30L-114,136L-37,-59Z" fill="#ffe8c9" stroke="#ffe8c9" stroke-width="1.51"/><path d="M-114,136L-47,222L-2,140Z" fill="#ffdeb7" stroke="#ffdeb7" stroke-width="1.51"/><path d="M-212,-237L-201,-30L-37,-59Z" fill="#ffeed7" stroke="#ffeed7" stroke-width="1.51"/><path d="M-188,516L-153,709L-21,553Z" fill="#ffbb98" stroke="#ffbb98" stroke-width="1.51"/><path d="M-153,709L-156,879L-11,804Z" fill="#fca78a" stroke="#fca78a" stroke-width="1.51"/><path d="M-156,879L-140,1029L-39,1001Z" fill="#f49779" stroke="#f49779" stroke-width="1.51"/><path d="M-114,136L-163,294L-47,222Z" fill="#ffdcb7" stroke="#ffdcb7" stroke-width="1.51"/><path d="M-143,1102L-193,1276L-56,1157Z" fill="#e28a6b" stroke="#e28a6b" stroke-width="1.51"/><path d="M-201,-30L-163,294L-114,136Z" fill="#ffe3bf" stroke="#ffe3bf" stroke-width="1.51"/><path d="M-193,1276L-143,1102L-140,1029Z" fill="#e78d6f" stroke="#e78d6f" stroke-width="1.51"/><path d="M-156,879L-193,1276L-140,1029Z" fill="#ed9175" stroke="#ed9175" stroke-width="1.51"/><path d="M-201,-30L-202,392L-163,294Z" fill="#ffdebc" stroke="#ffdebc" stroke-width="1.51"/><path d="M-188,516L-156,879L-153,709Z" fill="#ffb295" stroke="#ffb295" stroke-width="1.51"/><path d="M-188,516L-193,1276L-156,879Z" fill="#f9a084" stroke="#f9a084" stroke-width="1.51"/><path d="M-202,392L-193,1276L-188,516Z" fill="#ffb195" stroke="#ffb195" stroke-width="1.51"/><path d="M-212,-237L-202,392L-201,-30Z" fill="#ffe8cb" stroke="#ffe8cb" stroke-width="1.51"/></svg>